<?xml version="1.0" encoding="UTF-8"?>
<svg id="Layer_2" xmlns="http://www.w3.org/2000/svg" viewBox="0 0 678 678">
  <defs>
    <style>
      .cls-1 {
        fill: #231f20;
      }

      .cls-2 {
        fill: #fff;
      }

      .cls-3 {
        fill: #f36e21;
      }
    </style>
  </defs>
  <g id="Layer_1-2" data-name="Layer_1">
    <g>
      <path class="cls-3" d="M339,663c-86.54,0-167.91-33.7-229.1-94.9C48.7,506.91,15,425.54,15,339S48.7,171.09,109.9,109.9C171.09,48.7,252.46,15,339,15s167.91,33.7,229.1,94.9c61.2,61.2,94.9,142.56,94.9,229.1s-33.7,167.91-94.9,229.1c-61.2,61.2-142.56,94.9-229.1,94.9Z"/>
      <path class="cls-1" d="M339,30c170.66,0,309,138.34,309,309s-138.34,309-309,309S30,509.66,30,339,168.34,30,339,30M339,0c-45.75,0-90.15,8.97-131.96,26.65-40.37,17.08-76.62,41.51-107.75,72.64-31.12,31.12-55.56,67.37-72.64,107.75C8.97,248.85,0,293.25,0,339s8.97,90.15,26.65,131.96c17.08,40.37,41.51,76.62,72.64,107.75s67.37,55.56,107.75,72.64c41.81,17.69,86.21,26.65,131.96,26.65s90.15-8.97,131.96-26.65c40.37-17.08,76.62-41.51,107.75-72.64,31.12-31.12,55.56-67.37,72.64-107.75,17.69-41.81,26.65-86.21,26.65-131.96s-8.97-90.15-26.65-131.96c-17.08-40.37-41.51-76.62-72.64-107.75-31.12-31.12-67.37-55.56-107.75-72.64C429.15,8.97,384.75,0,339,0h0Z"/>
    </g>
    <g>
      <g>
        <path class="cls-2" d="M401.42,264.93c-2.82,0-5.65-.33-8.42-.97-19.87-4.63-32.27-24.55-27.64-44.42,3.92-16.85,18.73-28.61,36-28.61,2.82,0,5.65.33,8.42.97,19.87,4.63,32.27,24.55,27.64,44.42-3.92,16.85-18.73,28.61-36,28.61Z"/>
        <path class="cls-2" d="M401.36,192.42c2.67,0,5.37.3,8.08.93,19.09,4.45,30.97,23.53,26.52,42.62-3.82,16.38-18.41,27.45-34.54,27.45-2.67,0-5.37-.3-8.08-.93-19.09-4.45-30.97-23.53-26.52-42.62,3.82-16.38,18.41-27.45,34.54-27.45M401.36,189.42h0c-8.55,0-16.98,2.92-23.74,8.22-6.87,5.38-11.74,13.04-13.72,21.55-4.81,20.67,8.09,41.41,28.76,46.22,2.88.67,5.83,1.01,8.76,1.01,8.55,0,16.98-2.92,23.74-8.22,6.87-5.38,11.74-13.04,13.72-21.55,4.81-20.67-8.09-41.41-28.76-46.22-2.88-.67-5.83-1.01-8.76-1.01h0Z"/>
      </g>
      <g>
        <path class="cls-2" d="M381.74,566.31c-11.7,0-21.22-9.52-21.22-21.22v-131.96l-18.47-4.26,2.25-9.75,1.47.35c1.01.24,2.02.48,3.05.71l1.48.33-.86,3.74,31.68,7.3,3.94-17.07-17.01-3.92.24-1.4c.62-3.58-.13-7.21-2.1-10.24-2.09-3.19-5.29-5.38-9.02-6.16-4.82-1.02-9.57-2.28-14.12-3.73l-.99-.32-.05-1.04c-1.24-23.98,1.65-42.82,10.66-69.53,7.32-21.3,23.9-28.86,35.87-28.86,2.37,0,4.68.28,6.85.82,5.33,1.33,9.83,4.93,12.99,10.43,4.68,8.12,5.81,19.31,2.97,29.24-1.44,7.36-2.92,17.27-4.29,28.66l-.87,7.26-2.06-7.02c-4.22-14.41-4.65-27.88-4.63-33.01,0-1.63.04-2.86.07-3.6.01-.38.03-.66.05-.88v-.07c.31-3.83-.88-7.53-3.36-10.43-2.47-2.9-5.93-4.67-9.73-4.98-.39-.03-.77-.05-1.15-.05-7.38,0-13.63,5.77-14.23,13.13-.04.45-.22,2.91-.22,6.89.02,10.96,1.29,27.78,7.22,45.63,3.65,11,10.84,26.98,24.39,40.61l.46.46-.02.65c-.04,1.29-.13,2.55-.24,3.76.16,1.1.23,2.06.23,2.99v145.29c0,11.7-9.52,21.22-21.23,21.22Z"/>
        <path class="cls-2" d="M388.53,270.82c2.26,0,4.45.26,6.49.77,13.47,3.36,19.39,22.15,14.86,37.86-1.53,7.83-3.03,18.08-4.32,28.83-4.13-14.11-4.59-27.29-4.57-32.58,0-1.55.03-2.76.07-3.55.01-.36.03-.61.04-.81v-.11c.34-4.2-.98-8.28-3.71-11.49-2.73-3.21-6.55-5.16-10.75-5.5-.43-.03-.85-.05-1.27-.05-8.16,0-15.07,6.38-15.72,14.51-.02.28-.22,2.82-.22,7.01.02,11.07,1.31,28.06,7.3,46.1,4.05,12.22,11.46,27.83,24.75,41.19-.05,1.36-.13,2.64-.26,3.84.15.97.24,1.95.24,2.95v145.29c0,10.89-8.83,19.72-19.73,19.72s-19.72-8.83-19.72-19.72v-133.15l-15.09-3.48-3.07-.71.71-3.08.86-3.73c1.01.24,2.04.48,3.07.71l-.86,3.73,34.6,7.98,4.61-19.99-17.09-3.94c.68-3.95-.12-7.94-2.33-11.31-2.31-3.53-5.85-5.95-9.97-6.81-4.89-1.04-9.53-2.27-13.97-3.69-1.27-24.7,1.89-43.2,10.58-68.97,6.74-19.6,21.81-27.84,34.45-27.84M388.53,267.82c-12.47,0-29.71,7.82-37.29,29.86-9.08,26.92-11.99,45.91-10.74,70.1l.11,2.07,1.98.63c4.6,1.47,9.4,2.74,14.26,3.77,3.34.7,6.21,2.65,8.07,5.51,1.77,2.7,2.43,5.96,1.88,9.16l-.48,2.8,2.76.64,14.17,3.27-3.26,14.14-28.75-6.63.19-.81.68-2.95-2.95-.66c-1.02-.23-2.03-.46-3.03-.7l-2.94-.71-.68,2.95-.86,3.73-.71,3.08-.68,2.93,2.93.67,3.07.71,12.77,2.94v130.76c0,12.53,10.19,22.72,22.72,22.72s22.73-10.19,22.73-22.72v-145.29c0-.95-.07-1.92-.22-3.02.11-1.18.19-2.42.23-3.67l.04-1.3-.91-.92c-13.34-13.42-20.43-29.17-24.03-40.02-5.87-17.67-7.13-34.31-7.15-45.16,0-3.92.18-6.32.21-6.76.53-6.59,6.12-11.75,12.73-11.75.34,0,.68.01,1.03.04,3.4.27,6.5,1.86,8.71,4.46,2.21,2.6,3.28,5.91,3.01,9.31v.03s0,.03,0,.03v.07c-.02.23-.04.52-.05.92-.03.74-.07,1.99-.07,3.65-.01,5.18.42,18.82,4.69,33.42l4.11,14.04,1.75-14.53c1.36-11.32,2.83-21.16,4.26-28.48,2.93-10.29,1.73-21.9-3.13-30.34-3.37-5.85-8.19-9.7-13.93-11.13-2.3-.57-4.72-.86-7.22-.86h0Z"/>
      </g>
      <g>
        <path class="cls-2" d="M307.44,291.55c-6.9,0-13.66-1.94-19.55-5.61-17.31-10.8-22.61-33.66-11.81-50.97,6.8-10.91,18.55-17.42,31.42-17.42,6.9,0,13.66,1.94,19.55,5.61,17.31,10.8,22.61,33.66,11.81,50.97-6.8,10.91-18.55,17.42-31.42,17.42Z"/>
        <path class="cls-2" d="M307.5,219.05c6.42,0,12.91,1.74,18.76,5.38,16.63,10.38,21.71,32.27,11.33,48.91-6.73,10.79-18.31,16.71-30.15,16.71-6.42,0-12.91-1.74-18.75-5.38-16.63-10.38-21.71-32.27-11.33-48.91,6.73-10.79,18.31-16.71,30.15-16.71M307.5,216.05h0c-13.39,0-25.62,6.78-32.7,18.13-5.44,8.72-7.16,19.05-4.84,29.06,2.32,10.02,8.4,18.53,17.13,23.97,6.12,3.82,13.16,5.84,20.34,5.84,13.39,0,25.62-6.78,32.7-18.13,11.23-18.01,5.72-41.8-12.29-53.04-6.12-3.82-13.16-5.84-20.34-5.84h0Z"/>
      </g>
      <g>
        <path class="cls-2" d="M225.11,567.39c-2.51,0-4.99-.45-7.37-1.33-5.32-1.97-9.55-5.89-11.92-11.04-2.37-5.15-2.59-10.92-.62-16.23,8.26-22.34,12.46-45.26,12.47-68.12.02-25.84-5.5-45.99-8.91-55.96-9.96-7.2-13.81-17.9-11.77-32.68l.02-.11c7.46-34.46,16.12-53.3,37.06-80.61,11.79-15.19,25.49-17.45,32.61-17.45,6.18,0,12.18,1.68,16.89,4.72,11.1,7.17,11.48,23.42,6.11,35.78l-1.25,2.88-1.45-2.79c-1.28-2.46-2.44-4.98-3.34-7.28-.93-2.38-1.51-4.24-1.83-5.38-.16-.57-.26-.98-.34-1.31l-.02-.1c-1.31-6.69-7.2-11.54-14-11.54-.9,0-1.8.09-2.7.25-7.73,1.48-12.81,9.02-11.32,16.8.61,2.99,4.37,18.89,17.54,36.62.27.37.55.74.83,1.11l.67.89-.47.85c-6.84,12.4-16.35,31-19.97,49.27l-.03.11c-.28,1.03-.58,2.02-.89,3.02,4.13,13.75,8.99,35.7,9.01,62.92,0,27.9-5.08,55.77-15.11,82.86-3.07,8.29-11.07,13.86-19.91,13.86Z"/>
        <path class="cls-2" d="M266.68,285.37c6.11,0,11.73,1.68,16.08,4.48,9.83,6.35,11.02,21.34,5.55,33.92-1.43-2.74-2.51-5.19-3.27-7.14-.9-2.3-1.47-4.12-1.78-5.24-.16-.57-.26-.98-.34-1.3-1.45-7.39-7.95-12.75-15.48-12.75-.99,0-1.99.09-2.97.28-8.55,1.64-14.17,9.92-12.52,18.56.63,3.06,4.44,19.24,17.81,37.23.3.41.61.82.93,1.23-8.47,15.36-16.75,32.66-20.13,49.7-.33,1.21-.67,2.34-1.01,3.41,4.41,14.55,9.06,36.19,9.08,62.93,0,24.02-3.82,52.12-15.02,82.33-2.95,7.96-10.48,12.88-18.5,12.88-2.28,0-4.59-.4-6.85-1.23-10.22-3.78-15.44-15.13-11.65-25.35,9.44-25.51,12.55-48.77,12.56-68.64.02-25.88-5.39-46.04-9.15-56.9-8.08-5.67-13.84-14.92-11.55-31.53,7.46-34.49,16.34-53.36,36.79-80.02,9.4-12.11,21.11-16.87,31.41-16.86M266.68,282.37s0,0,0,0c-7.39,0-21.61,2.34-33.78,18.03-20.86,27.19-29.93,46.93-37.35,81.22l-.02.11-.02.11c-2.07,14.98,1.97,26.35,11.99,33.81,3.39,10.02,8.7,29.78,8.68,55.03,0,22.68-4.17,45.42-12.38,67.6-2.11,5.69-1.87,11.86.66,17.38,2.54,5.51,7.07,9.71,12.76,11.82,2.55.94,5.2,1.42,7.89,1.42,9.46,0,18.03-5.96,21.31-14.84,10.1-27.25,15.21-55.3,15.21-83.37-.03-27.12-4.82-49.04-8.95-62.92.27-.87.52-1.73.77-2.63l.03-.11.02-.11c3.58-18.06,13.02-36.52,19.82-48.84l.94-1.71-1.18-1.55c-.31-.41-.61-.81-.91-1.2-12.98-17.48-16.67-33.1-17.28-36.05-1.32-6.93,3.22-13.68,10.14-15,.79-.15,1.61-.23,2.41-.23,6.09,0,11.36,4.34,12.53,10.33v.07s.03.06.03.06c.09.38.2.81.36,1.4.33,1.17.92,3.09,1.88,5.53.92,2.35,2.1,4.92,3.4,7.43l2.91,5.57,2.51-5.76c5.62-12.93,5.14-30.01-6.67-37.63-4.95-3.2-11.24-4.96-17.7-4.96h0Z"/>
      </g>
      <g>
        <path class="cls-2" d="M354.23,400.88c-.97,0-1.94-.1-2.91-.3-43.6-9.03-67.7-31.17-80.23-48.16-13.16-17.72-16.9-33.58-17.52-36.58-1.48-7.72,3.55-15.13,11.2-16.6.88-.17,1.78-.25,2.67-.25,6.71,0,12.53,4.78,13.84,11.36l.05.21c.06.24.16.67.33,1.27.32,1.16.9,3.03,1.84,5.41,1.71,4.37,4.87,11.08,10.26,18.32,14.23,18.9,35.55,31.48,63.37,37.37,7.62,1.59,12.52,9.09,10.92,16.72-1.36,6.51-7.16,11.23-13.8,11.23h0Z"/>
        <path class="cls-2" d="M267.44,300.49c5.92,0,11.2,4.18,12.38,10.2,0,.01,0,.03.01.05,0,.04.02.09.04.16.06.26.17.71.35,1.33.34,1.24.94,3.15,1.88,5.55,1.88,4.8,5.13,11.51,10.45,18.67,10.75,14.28,29.33,30.55,64.26,37.94,6.82,1.43,11.19,8.12,9.77,14.95-1.24,5.95-6.49,10.04-12.34,10.04h0c-.86,0-1.73-.09-2.6-.27-40.81-8.45-65.62-29-79.33-47.58-13.8-18.58-17.01-34.81-17.27-36.04-1.31-6.85,3.18-13.46,10.03-14.77.8-.15,1.6-.23,2.38-.23M267.44,297.49c-.98,0-1.97.09-2.95.28-8.46,1.62-14.03,9.82-12.41,18.28l.02.09c.63,3.05,4.43,19.2,17.79,37.18,12.69,17.19,37.07,39.6,81.13,48.73,1.06.22,2.14.33,3.21.33,7.35,0,13.77-5.22,15.28-12.42,1.76-8.43-3.66-16.73-12.09-18.5-27.83-5.89-48.27-17.94-62.48-36.81-5.28-7.09-8.38-13.68-10.05-17.95-.91-2.32-1.48-4.14-1.79-5.26-.16-.58-.26-.99-.32-1.22v-.06s-.03-.06-.03-.09c-1.45-7.29-7.88-12.57-15.31-12.57h0Z"/>
      </g>
      <g>
        <path class="cls-2" d="M426.79,407.19c-2.58,0-5.12-.71-7.34-2.06-24.14-14.72-35.7-37.4-41.15-53.84-5.92-17.82-7.19-34.62-7.22-45.58,0-4.32.22-6.85.22-6.88.58-7.27,6.76-12.98,14.06-12.98.38,0,.76.01,1.15.05,7.76.62,13.57,7.45,12.95,15.21v.14c-.02.21-.04.48-.05.84-.03.74-.07,1.97-.07,3.62-.01,5.81.52,21.01,5.76,36.65,5.86,17.46,15.64,30.47,29.06,38.66,3.22,1.96,5.48,5.07,6.37,8.73.89,3.67.29,7.46-1.67,10.68-2.59,4.24-7.1,6.77-12.07,6.77Z"/>
        <path class="cls-2" d="M385.37,287.34c.34,0,.68.01,1.03.04,6.95.56,12.13,6.65,11.57,13.59v.16c-.02.18-.04.47-.06.88-.03.81-.07,2.06-.07,3.68-.02,7.34.82,22.16,5.84,37.13,5.05,15.06,13.87,29.8,29.7,39.47,5.95,3.63,7.83,11.4,4.2,17.35-2.38,3.9-6.54,6.05-10.79,6.05-2.24,0-4.51-.6-6.56-1.85-22.32-13.61-34.3-34.33-40.5-53.03-6.25-18.79-7.12-36.01-7.14-45.12,0-4.02.19-6.45.21-6.74.53-6.61,6.06-11.61,12.57-11.61M385.37,284.34c-8.08,0-14.91,6.31-15.56,14.37,0,.08-.22,2.6-.22,6.98.02,11.08,1.31,28.05,7.29,46.06,5.53,16.67,17.27,39.69,41.79,54.65,2.46,1.5,5.26,2.29,8.12,2.29,5.5,0,10.49-2.8,13.35-7.49,2.17-3.56,2.83-7.76,1.85-11.82-.98-4.06-3.49-7.49-7.05-9.66-13.11-8.01-22.68-20.74-28.42-37.86-5.17-15.43-5.7-30.43-5.69-36.16,0-1.62.04-2.83.07-3.56.01-.35.03-.61.04-.78v-.19c.34-4.12-.96-8.16-3.67-11.34-2.71-3.18-6.49-5.11-10.64-5.45-.42-.03-.85-.05-1.27-.05h0Z"/>
      </g>
      <g>
        <path class="cls-2" d="M455.75,182.41c-2.05,0-3.74-.58-4.89-1.69-7.61-7.32-1.74-15.72,2.55-21.85.83-1.19,1.61-2.3,2.29-3.38,5-7.95,1.41-21.04-5.09-28.28-2.73-3.04-5.79-4.65-8.86-4.65-5.07,0-9.87,4.52-10.91,10.28-1.1,6.1,2.41,11.29,9.38,13.9,3.7,1.39,3.69,3.83,3.51,4.81-.63,3.46-5.64,6.25-9.38,6.25-.84,0-1.62-.13-2.32-.39-7.48-2.8-13.25-7.68-15.83-13.39-2.08-4.61-2.14-9.57-.16-14.72,4.09-10.69,14.92-18.2,26.96-18.68.36-.01.71-.02,1.06-.02,16.02,0,25.99,14.27,28.47,27.53,1.23,6.57,1.75,13.56-2.74,20.14-.59.87-1.32,1.8-2.09,2.79-3.96,5.07-6.74,9.19-3.56,12.25,1.27,1.22,1.65,2.77,1.06,4.26-1.16,2.89-5.82,4.83-9.45,4.83h0Z"/>
        <path class="cls-2" d="M444.07,112.11c14.5,0,24.47,12.8,27,26.31,1.27,6.76,1.5,13.14-2.51,19.02-3.13,4.59-10.83,11.8-5.46,16.97,3.1,2.98-2.7,6.51-7.35,6.51-1.52,0-2.92-.38-3.85-1.27-7.95-7.65.71-16.43,5.07-23.35,5.56-8.83,1.42-22.66-5.24-30.08-3.28-3.66-6.76-5.15-9.98-5.15-11.87,0-20.2,20.3-2.05,27.09,6.36,2.38-.34,8.16-5.34,8.16-.64,0-1.24-.09-1.79-.3-11.14-4.17-19.88-13.71-15.12-26.17,4.02-10.5,14.53-17.28,25.62-17.72.34-.01.67-.02,1-.02M444.07,109.11c-.37,0-.75,0-1.12.02-12.62.51-24,8.4-28.3,19.65-2.09,5.46-2.02,10.95.2,15.87,2.74,6.07,8.82,11.24,16.67,14.18.87.32,1.82.49,2.84.49,4.39,0,10.09-3.27,10.85-7.49.19-1.06.43-4.65-4.46-6.48-6.34-2.37-9.41-6.83-8.43-12.23.92-5.07,5.06-9.05,9.43-9.05,2.63,0,5.31,1.44,7.74,4.15,6.13,6.83,9.58,19.1,4.93,26.48-.66,1.04-1.43,2.15-2.25,3.32-4.34,6.21-10.89,15.58-2.36,23.79,1.43,1.38,3.48,2.11,5.93,2.11,4.19,0,9.38-2.16,10.84-5.77.83-2.05.3-4.25-1.41-5.9-2.09-2.01-.47-4.9,3.7-10.25.79-1.01,1.53-1.96,2.15-2.87,4.81-7.05,4.21-14.71,2.98-21.27-2.59-13.85-13.06-28.76-29.94-28.76h0Z"/>
      </g>
      <g>
        <path class="cls-2" d="M471.96,209.33c-1.85,0-3.77-.4-5.56-1.17-5.96-2.55-9.15-8.5-7.11-13.26,1.37-3.19,4.79-5.17,8.94-5.17,1.85,0,3.77.41,5.56,1.17,2.82,1.21,5.12,3.2,6.48,5.62,1.43,2.55,1.65,5.26.64,7.63-1.37,3.19-4.79,5.17-8.94,5.17Z"/>
        <path class="cls-2" d="M468.23,191.23c1.6,0,3.31.34,4.97,1.05,5.21,2.23,8.04,7.28,6.33,11.29-1.17,2.73-4.14,4.26-7.56,4.26-1.6,0-3.31-.34-4.97-1.05-5.21-2.23-8.04-7.28-6.33-11.29,1.17-2.73,4.14-4.26,7.56-4.26M468.23,188.23h0c-4.76,0-8.72,2.33-10.32,6.08-2.36,5.52,1.18,12.35,7.9,15.23,1.97.84,4.1,1.29,6.15,1.29,4.76,0,8.72-2.33,10.32-6.08,2.36-5.52-1.18-12.35-7.9-15.23-1.97-.84-4.1-1.29-6.15-1.29h0Z"/>
      </g>
    </g>
  </g>
</svg>