<?xml version="1.0" encoding="UTF-8"?>
<svg id="Layer_2" xmlns="http://www.w3.org/2000/svg" viewBox="0 0 781.76 781.76">
  <defs>
    <style>
      .cls-1 {
        fill: #231f20;
      }

      .cls-2 {
        fill: #fff;
      }

      .cls-3 {
        fill: #fed600;
      }
    </style>
  </defs>
  <g id="Layer_1-2" data-name="Layer_1">
    <g>
      <path class="cls-3" d="M390.88,766.76c-50.74,0-99.96-9.94-146.31-29.54-44.76-18.93-84.96-46.03-119.47-80.55-34.52-34.52-61.62-74.71-80.55-119.47-19.6-46.35-29.54-95.58-29.54-146.31s9.94-99.96,29.54-146.31c18.93-44.76,46.03-84.96,80.55-119.47,34.52-34.52,74.71-61.62,119.47-80.55,46.35-19.6,95.58-29.54,146.31-29.54s99.96,9.94,146.31,29.54c44.76,18.93,84.96,46.03,119.47,80.55,34.52,34.52,61.62,74.71,80.55,119.47,19.6,46.35,29.54,95.58,29.54,146.31s-9.94,99.96-29.54,146.31c-18.93,44.76-46.03,84.96-80.55,119.47-34.52,34.51-74.71,61.62-119.47,80.55-46.35,19.6-95.58,29.54-146.31,29.54Z"/>
      <path class="cls-1" d="M390.88,30c199.31,0,360.88,161.57,360.88,360.88s-161.57,360.88-360.88,360.88S30,590.19,30,390.88,191.57,30,390.88,30M390.88,0c-52.76,0-103.95,10.34-152.16,30.73-46.55,19.69-88.35,47.87-124.24,83.76-35.89,35.89-64.07,77.69-83.76,124.24C10.34,286.93,0,338.13,0,390.88s10.34,103.95,30.73,152.16c19.69,46.55,47.87,88.35,83.76,124.24,35.89,35.89,77.69,64.07,124.24,83.76,48.21,20.39,99.4,30.73,152.16,30.73s103.95-10.34,152.16-30.73c46.55-19.69,88.35-47.87,124.24-83.76s64.07-77.69,83.76-124.24c20.39-48.21,30.73-99.4,30.73-152.16s-10.34-103.95-30.73-152.16c-19.69-46.55-47.87-88.35-83.76-124.24-35.89-35.89-77.69-64.07-124.24-83.76C494.83,10.34,443.64,0,390.88,0h0Z"/>
    </g>
    <g>
      <g>
        <path class="cls-2" d="M198.06,346.03c-.32,0-.64,0-.97-.02-6.17-.25-11.87-2.9-16.05-7.44-4.18-4.54-6.35-10.44-6.09-16.61.51-12.43,10.65-22.16,23.08-22.16.32,0,.64,0,.97.02,12.74.52,22.67,11.31,22.15,24.05-.51,12.43-10.65,22.16-23.08,22.16Z"/>
        <path class="cls-2" d="M198.02,300.3c.31,0,.63,0,.95.02,12.48.51,22.18,11.05,21.67,23.53-.5,12.16-10.52,21.68-22.58,21.68-.31,0-.63,0-.95-.02-12.48-.51-22.18-11.05-21.67-23.53.5-12.16,10.52-21.68,22.58-21.68M198.03,299.3h0c-12.7,0-23.06,9.95-23.58,22.64-.54,13.01,9.61,24.03,22.62,24.57.33.01.66.02.99.02,12.7,0,23.06-9.95,23.58-22.64.26-6.3-1.95-12.33-6.22-16.97-4.27-4.64-10.1-7.34-16.4-7.6-.33-.01-.66-.02-.99-.02h0Z"/>
      </g>
      <g>
        <path class="cls-2" d="M175.46,524.22c-5.82,0-10.55-4.73-10.55-10.55v-69.4c-1.33-.16-2.65-.32-3.98-.48-.12.51-.27,1-.45,1.46l-28.12,72.12c-1.59,4.08-5.45,6.72-9.83,6.72h0c-1.31,0-2.6-.24-3.83-.72-5.42-2.11-8.11-8.24-6-13.67l26.9-68.99c-5.81-.95-11.05-1.89-16.01-2.86l-.51-.1.12-.5c7.38-31.44,19.22-61.02,35.19-87.93-2.44-2.97-4.72-6.27-6.78-9.8-5.87-10.04-12.86-27.18-12.85-51.77,0-5.5.35-11.23,1.04-17.04.42-3.54,3.42-6.2,6.98-6.2.28,0,.56.02.84.05,3.85.46,6.61,3.97,6.15,7.82-.62,5.24-.94,10.41-.94,15.37,0,16.76,3.52,31.5,10.43,43.81,4.02,7.14,8.12,11.37,9.75,12.9,4.2,2.25,7.83,4.06,10.79,5.36,5.91,2.6,12.75,4.76,16.31,5.81,2.02.49,4.18.97,6.41,1.4,6.19,1.2,15.84,2.64,26.6,2.64,8.82,0,17.05-.95,24.52-2.81.56-.14,1.14-.21,1.71-.21,3.23,0,6.04,2.19,6.82,5.33.46,1.82.18,3.71-.79,5.32-.97,1.61-2.5,2.75-4.33,3.2-8.58,2.14-17.97,3.23-27.9,3.23-13.15,0-24.72-1.88-32.27-3.5-2.56,25.53-1.46,51.27,3.29,76.52l.12.62-.63-.03c-5.65-.24-11.42-.58-17.62-1.05v67.38c0,5.82-4.73,10.55-10.55,10.55Z"/>
        <path class="cls-2" d="M146.77,265c.26,0,.52.02.78.05,3.58.43,6.14,3.68,5.71,7.26-.65,5.49-.94,10.63-.94,15.43.01,20.44,5.25,34.71,10.49,44.05,4.04,7.18,8.13,11.41,9.89,13.06,3.39,1.82,7.34,3.85,10.89,5.41,6.05,2.66,12.98,4.83,16.37,5.83,1.72.42,3.9.92,6.45,1.41,6.82,1.33,16.29,2.65,26.69,2.65h.05c7.92,0,16.36-.77,24.58-2.83.53-.13,1.06-.2,1.59-.2,2.93,0,5.59,1.98,6.33,4.95.88,3.5-1.25,7.05-4.75,7.92-9.52,2.38-19.02,3.22-27.78,3.22-13.44-.01-25.19-1.97-32.71-3.61-2.62,25.54-1.59,51.55,3.24,77.22-6.04-.25-12.08-.62-18.14-1.09v67.92c0,5.55-4.5,10.05-10.05,10.05s-10.05-4.5-10.05-10.05v-69.85c-1.63-.19-3.25-.39-4.88-.59-.11.62-.28,1.23-.52,1.83l-28.12,72.12c-1.55,3.97-5.35,6.41-9.37,6.41-1.21,0-2.45-.22-3.65-.69-5.17-2.02-7.73-7.84-5.71-13.02l27.12-69.57c-5.54-.9-11.07-1.88-16.61-2.96,7.61-32.44,19.82-62.06,35.32-88.1-2.12-2.56-4.54-5.87-6.96-10.01-6.47-11.08-12.79-28.08-12.78-51.52,0-5.33.32-10.98,1.04-16.98.4-3.32,3.22-5.76,6.48-5.76M146.77,264c-3.81,0-7.02,2.86-7.48,6.64-.69,5.82-1.04,11.57-1.04,17.09-.01,24.71,7.02,41.93,12.92,52.03,2.01,3.45,4.23,6.68,6.6,9.6-15.91,26.87-27.71,56.4-35.07,87.78l-.24,1.01,1.02.2c4.78.93,9.84,1.84,15.42,2.76l-26.67,68.42c-2.21,5.68.6,12.1,6.28,14.31,1.29.5,2.64.76,4.01.76,4.59,0,8.63-2.76,10.3-7.04l28.12-72.12c.14-.35.26-.72.36-1.09,1.04.13,2.07.26,3.1.38v68.96c0,6.09,4.96,11.05,11.05,11.05s11.05-4.96,11.05-11.05v-66.84c6,.45,11.6.78,17.1,1.01l1.26.05-.23-1.24c-4.7-25.02-5.82-50.53-3.34-75.83,7.58,1.6,18.95,3.39,31.83,3.4,9.97,0,19.4-1.09,28.02-3.25,1.95-.49,3.6-1.71,4.63-3.43,1.04-1.73,1.34-3.75.85-5.7-.84-3.36-3.84-5.71-7.31-5.71-.61,0-1.23.08-1.83.23-7.43,1.86-15.62,2.8-24.34,2.8h-.05c-10.72,0-20.33-1.43-26.5-2.63-2.22-.43-4.38-.9-6.41-1.4-3.5-1.04-10.32-3.19-16.2-5.78-2.94-1.29-6.54-3.08-10.7-5.31-1.64-1.55-5.66-5.72-9.61-12.74-6.87-12.23-10.35-26.88-10.36-43.56,0-4.94.32-10.09.94-15.31.49-4.13-2.47-7.88-6.59-8.37-.3-.04-.6-.05-.9-.05h0Z"/>
      </g>
      <g>
        <path class="cls-2" d="M231.61,310.23c-.83,0-1.56-.5-1.86-1.27-.41-1.03.09-2.2,1.12-2.61l9.58-3.82-11.58-4.1c-.65-.23-1.12-.76-1.28-1.43-.16-.67.03-1.36.5-1.85l11.28-11.85-15.54,2.8c-.12.02-.24.03-.35.03-.54,0-1.04-.21-1.42-.59-.47-.46-.67-1.13-.56-1.77l2.54-14.19-12.14,10.15c-.36.3-.82.47-1.29.47-.2,0-.4-.03-.6-.09-.65-.21-1.15-.72-1.34-1.38l-3.59-12.99-6.66,16.25c-.23.57-.73,1.01-1.32,1.17-.18.05-.36.07-.54.07-.43,0-.85-.14-1.19-.39l-8.01-5.9,1.58,9.63c.18,1.09-.57,2.12-1.66,2.31-.11.02-.22.03-.33.03-.99,0-1.82-.71-1.98-1.68l-2.37-14.49c-.13-.81.23-1.61.93-2.04.32-.19.68-.3,1.05-.3.43,0,.84.13,1.19.39l9.91,7.3,7.91-19.3c.31-.76,1.04-1.25,1.86-1.25h.12c.86.05,1.59.64,1.82,1.47l4.32,15.65,13.98-11.69c.36-.3.82-.47,1.29-.47.35,0,.7.09,1.01.27.73.42,1.12,1.26.97,2.09l-3,16.78,18.75-3.38c.12-.02.24-.03.36-.03.74,0,1.42.4,1.77,1.05.41.77.29,1.71-.31,2.34l-13.38,14.06,13.69,4.85c.78.28,1.32,1.02,1.34,1.85.02.83-.49,1.59-1.26,1.9l-14.54,5.79c-.24.1-.49.14-.74.14Z"/>
        <path class="cls-2" d="M205.44,258.04s.06,0,.09,0c.64.04,1.19.48,1.36,1.1l4.53,16.4,14.58-12.19c.28-.23.62-.35.97-.35.26,0,.52.07.76.2.55.32.84.95.73,1.57l-3.13,17.49,19.45-3.5c.09-.02.18-.02.27-.02.55,0,1.06.3,1.33.79.31.58.21,1.28-.23,1.76l-13.91,14.62,14.42,5.11c.59.21.99.76,1,1.39.01.63-.37,1.2-.95,1.43l-14.54,5.79c-.18.07-.37.11-.56.11-.6,0-1.17-.36-1.4-.95-.31-.78.07-1.65.84-1.96l10.82-4.31-12.83-4.55c-.48-.17-.85-.57-.96-1.07-.12-.49.02-1.02.38-1.39l12.33-12.96-17.05,3.07c-.09.02-.18.02-.26.02-.4,0-.78-.16-1.07-.44-.35-.35-.51-.85-.42-1.33l2.78-15.54-13.19,11.03c-.28.23-.62.35-.97.35-.15,0-.3-.02-.45-.07-.49-.15-.87-.54-1.01-1.04l-3.98-14.4-7.21,17.6c-.18.43-.54.76-.99.88-.13.04-.27.06-.41.06-.32,0-.63-.1-.89-.29l-9-6.63,1.78,10.84c.13.82-.42,1.6-1.24,1.73-.08.01-.16.02-.24.02-.73,0-1.37-.53-1.49-1.26l-2.37-14.49c-.1-.61.18-1.21.7-1.53.24-.15.52-.22.79-.22.31,0,.63.1.89.29l10.43,7.68,8.15-19.89c.23-.57.78-.94,1.4-.94M205.44,257.04h0c-1.02,0-1.93.61-2.32,1.56l-7.67,18.71-9.39-6.92c-.44-.32-.95-.49-1.49-.49-.46,0-.91.13-1.31.37-.88.54-1.33,1.53-1.17,2.55l2.37,14.49c.2,1.22,1.24,2.1,2.47,2.1.13,0,.27-.01.4-.03,1.36-.23,2.29-1.52,2.07-2.88l-1.38-8.42,7.02,5.17c.43.31.95.49,1.49.49.23,0,.46-.03.68-.09.73-.2,1.35-.75,1.64-1.46l6.1-14.89,3.2,11.58c.23.82.85,1.47,1.67,1.73.24.08.5.11.75.11.59,0,1.16-.21,1.61-.59l11.08-9.27-2.3,12.83c-.15.81.12,1.64.7,2.22.47.47,1.1.73,1.78.73.15,0,.29-.01.44-.04l14.04-2.53-10.22,10.74c-.59.61-.82,1.48-.62,2.31.2.83.8,1.5,1.6,1.78l10.33,3.66-8.35,3.32c-1.29.51-1.91,1.98-1.4,3.26.38.96,1.29,1.58,2.33,1.58.32,0,.63-.06.93-.18l14.54-5.79c.96-.39,1.6-1.34,1.58-2.38-.02-1.04-.69-1.97-1.67-2.32l-12.97-4.6,12.85-13.5c.75-.79.91-1.96.39-2.92-.44-.81-1.29-1.32-2.21-1.32-.15,0-.3.01-.44.04l-18.04,3.25,2.88-16.07c.19-1.04-.3-2.08-1.21-2.61-.38-.22-.82-.34-1.26-.34-.59,0-1.16.21-1.61.58l-13.39,11.19-4.12-14.9c-.29-1.03-1.2-1.77-2.27-1.83-.05,0-.1,0-.15,0h0Z"/>
      </g>
      <g>
        <path class="cls-2" d="M622.85,524.22c-25.89,0-46.95-21.07-46.95-46.95,0-15.24,7.43-29.54,19.9-38.35l-12.81-24.44-36.78,72.46h-64.37c-4.53,21.62-23.78,37.27-45.94,37.28-7.06,0-13.91-1.58-20.35-4.69-16.41-7.92-26.6-24.11-26.6-42.26,0-25.88,21.06-46.95,46.95-46.95,6.69,0,13.17,1.39,19.25,4.13l.45.2-7.87,17.71-.46-.21c-3.61-1.64-7.44-2.48-11.37-2.49-15.19.03-27.57,12.42-27.6,27.61.03,15.19,12.42,27.57,27.61,27.59,11.49-.02,21.78-7.19,25.81-17.92h-27.46v-19.35h8.72l.06.44c.64,4.93,3.72,9.07,8.22,11.07,1.82.81,3.74,1.22,5.71,1.22,5.56,0,10.62-3.28,12.87-8.36l7.47-16.81.48.94c1.85,3.66,3.22,7.53,4.05,11.52h8.83c-1.39-7.23-4.5-14.32-9.25-21.09l-.16-.23,10.03-22.58c1.54-3.45,1.63-7.29.26-10.81-1.25-3.22-3.64-5.85-6.72-7.42l-1.86-.95h5.02l.11.06c6.23,3.29,18.62,9.99,28.14,15.16l.36.2-11.86,36.6c-1.16,3.57-.85,7.38.86,10.74,1.71,3.35,4.62,5.84,8.19,6.99,1.41.46,2.87.69,4.34.69,6.12,0,11.5-3.92,13.39-9.74l15.41-47.59c2.06-6.36-.67-13.34-6.5-16.61l-34.32-19.27.56-1.32h58.45l-6.39-12.19h-2.3l.04-.53c.05-.68.02-1.35-.07-2-.66-4.69-4.72-8.22-9.45-8.22-.45,0-.9.03-1.34.09-3.28.46-6.42.79-9.33.97l-.53.03v-5.1h31.91l41.38,78.92c4.47-1.38,9.11-2.07,13.8-2.07,25.88,0,46.94,21.07,46.94,46.95s-21.06,46.94-46.94,46.95h0ZM604.92,456.31c-6.14,5.26-9.66,12.86-9.67,20.96.03,15.19,12.41,27.57,27.6,27.59,15.2-.02,27.57-12.4,27.59-27.59-.01-15.19-12.39-27.57-27.59-27.6-1.49,0-3.01.14-4.54.39l13.6,25.95-13.08,6.85-13.92-26.55Z"/>
        <path class="cls-2" d="M567.36,353.98l17.04,32.5,24.39,46.52c4.43-1.41,9.15-2.18,14.05-2.18,25.65,0,46.44,20.8,46.44,46.45s-20.79,46.44-46.44,46.45c-25.66,0-46.45-20.8-46.45-46.45,0-15.84,7.94-29.81,20.05-38.19l-13.46-25.68-37.08,73.05h-64.47c-4.26,21.25-23.01,37.27-45.53,37.28-7.22,0-14.04-1.7-20.13-4.64-15.56-7.51-26.32-23.38-26.32-41.81,0-25.66,20.79-46.45,46.45-46.45,6.79,0,13.23,1.47,19.05,4.09l-7.46,16.8c-3.53-1.61-7.44-2.53-11.58-2.54-15.52.03-28.07,12.58-28.1,28.1.03,15.51,12.59,28.07,28.1,28.09,12.29-.02,22.7-7.92,26.52-18.92h-27.67v-18.35h7.78c.64,4.87,3.7,9.32,8.52,11.46,1.88.84,3.87,1.26,5.91,1.26,5.76,0,10.99-3.4,13.33-8.66l7.05-15.85c1.86,3.68,3.26,7.63,4.09,11.79h9.84c-1.48-8.26-5.01-15.57-9.44-21.88l9.92-22.32c1.59-3.57,1.69-7.55.27-11.2-1.31-3.37-3.77-6.06-6.96-7.69h2.81c6.21,3.27,18.67,10.02,28.13,15.16l-11.73,36.21c-2.48,7.65,1.73,15.88,9.38,18.36,1.46.47,2.97.71,4.5.71h0c6.34,0,11.91-4.05,13.86-10.09l15.41-47.59c2.13-6.58-.7-13.82-6.73-17.2l-33.93-19.05.26-.6h58.95l-6.92-13.19h-2.06c.05-.69.03-1.4-.07-2.1-.7-4.93-4.97-8.65-9.95-8.65-.47,0-.95.03-1.41.1-3.3.47-6.41.79-9.29.96v-4.07h31.11M619.05,482.19l-13.97-26.66c-6.29,5.15-10.31,12.97-10.33,21.74.03,15.51,12.58,28.07,28.1,28.09,15.51-.02,28.07-12.58,28.09-28.09-.02-15.52-12.58-28.07-28.09-28.1-1.81,0-3.58.19-5.3.52l13.69,26.11-12.19,6.39M567.97,352.98h-32.71v6.14l1.06-.06c2.92-.18,6.07-.5,9.37-.97.42-.06.85-.09,1.27-.09,4.48,0,8.33,3.35,8.96,7.79.09.61.11,1.25.06,1.89l-.07,1.07h2.53l5.87,11.19h-57.96l-.26.61-.26.6-.35.83.78.44,33.93,19.05c5.62,3.15,8.25,9.89,6.27,16.02l-15.41,47.59c-1.82,5.62-7.01,9.4-12.91,9.4-1.43,0-2.83-.22-4.19-.67-3.44-1.12-6.25-3.51-7.9-6.74-1.65-3.23-1.95-6.91-.83-10.36l11.73-36.21.26-.79-.73-.4c-9.53-5.18-21.92-11.89-28.15-15.17l-.22-.12h-7.23l3.72,1.89c2.98,1.51,5.28,4.06,6.48,7.16,1.32,3.4,1.23,7.1-.25,10.43l-9.92,22.32-.23.52.32.46c4.58,6.52,7.62,13.35,9.05,20.3h-7.81c-.85-3.89-2.2-7.66-4.01-11.24l-.95-1.88-.85,1.92-7.04,15.85c-2.18,4.9-7.05,8.07-12.41,8.07-1.9,0-3.75-.39-5.51-1.17-4.35-1.93-7.31-5.92-7.93-10.68l-.11-.87h-9.66v20.35h27.22c-4.13,10.16-14.04,16.9-25.08,16.92-14.91-.02-27.07-12.18-27.1-27.09.03-14.91,12.19-27.07,27.11-27.1,3.86,0,7.62.83,11.16,2.45l.92.42.41-.92,7.46-16.8.4-.91-.91-.41c-6.15-2.77-12.69-4.17-19.46-4.17-26.17,0-47.45,21.3-47.45,47.45,0,9.09,2.59,17.93,7.48,25.54,4.76,7.4,11.47,13.34,19.4,17.17,6.51,3.14,13.43,4.74,20.57,4.74,22.26,0,41.61-15.64,46.34-37.28h64.27l.28-.55,36.21-71.32,12.16,23.19c-12.39,8.92-19.75,23.25-19.75,38.5,0,26.16,21.29,47.44,47.45,47.45,26.16,0,47.44-21.3,47.44-47.45s-21.28-47.44-47.44-47.45c-4.6,0-9.15.66-13.55,1.98l-24.01-45.78-17.04-32.5-.28-.54h0ZM619.07,450.45c1.27-.18,2.54-.28,3.78-.28,14.92.03,27.07,12.19,27.09,27.11-.02,14.91-12.17,27.07-27.09,27.09-14.91-.02-27.07-12.18-27.1-27.09.02-7.74,3.29-15.02,9.03-20.16l13.39,25.55.46.89.89-.46,12.19-6.39.89-.46-.46-.89-13.05-24.89h0Z"/>
      </g>
      <g>
        <path class="cls-2" d="M409.23,404.52h10.31l.14.26c1.45,2.62,3.2,4.32,5.52,5.33l29.37,12.82-56.24.95,10.89-19.37Z"/>
        <path class="cls-2" d="M419.24,405.02c1.25,2.27,2.97,4.33,5.76,5.55l27.27,11.9-53.07.9,10.32-18.35h9.72M419.83,404.02h-10.9l-.29.51-10.32,18.35-.85,1.52,1.74-.03,53.07-.9,4.59-.08-4.21-1.84-27.27-11.9c-2.21-.97-3.89-2.59-5.28-5.12l-.29-.52h0Z"/>
      </g>
      <g>
        <path class="cls-2" d="M604.21,392.9c-6.47,0-12.05-4.2-13.9-10.46-.44-1.52-.65-2.82-.65-4.09,0-8.02,6.53-14.55,14.55-14.55h.5v29.1h-.5Z"/>
        <path class="cls-2" d="M604.21,364.3v28.1c-6.38,0-11.7-4.28-13.42-10.1-.37-1.26-.63-2.57-.63-3.95,0-7.76,6.29-14.05,14.05-14.05M605.21,363.3h-1c-8.3,0-15.05,6.75-15.05,15.05,0,1.32.21,2.66.67,4.23,1.91,6.47,7.69,10.82,14.38,10.82h1v-30.1h0Z"/>
      </g>
      <g>
        <path class="cls-2" d="M538.89,319.86c-3.82,0-7.63-.97-11.01-2.81-5.43-2.95-9.38-7.83-11.13-13.75-1.75-5.92-1.09-12.17,1.85-17.59,4.05-7.45,11.84-12.08,20.33-12.08,3.82,0,7.63.97,11.01,2.81,5.43,2.95,9.38,7.83,11.13,13.75,1.75,5.92,1.09,12.17-1.85,17.59-4.05,7.45-11.84,12.08-20.33,12.08Z"/>
        <path class="cls-2" d="M538.93,274.13c3.65,0,7.35.88,10.77,2.75,10.97,5.96,15.04,19.69,9.08,30.67-4.1,7.54-11.87,11.82-19.89,11.82-3.65,0-7.34-.88-10.77-2.75-10.98-5.96-15.04-19.69-9.08-30.67,4.1-7.54,11.87-11.82,19.89-11.82M538.93,273.13h0c-8.67,0-16.63,4.73-20.77,12.35-6.21,11.44-1.96,25.81,9.48,32.02,3.45,1.88,7.35,2.87,11.25,2.87,8.67,0,16.63-4.73,20.77-12.35,6.21-11.44,1.96-25.81-9.48-32.02-3.45-1.88-7.35-2.87-11.25-2.87h0Z"/>
      </g>
      <g>
        <path class="cls-2" d="M518.14,473.45v.5c-1.37,0-2.72-.21-4.03-.64-3.32-1.07-6.02-3.38-7.61-6.49s-1.87-6.65-.79-9.97l12.11-37.4c-12.94-7.04-32.2-17.45-33.2-17.77-9.17-2.4-19.54-7.28-18.27-23.84,3.41-22.16,8.18-34.43,20.41-52.54,5.3-7.75,12.96-12.19,21.02-12.19,3.42,0,6.66.81,9.37,2.33,2.94,1.66,5.02,4.53,6,8.32,1.47,5.67.29,12.63-3.09,18.15-.71,1.44-1.5,2.98-2.31,4.59-1.12,2.21-2.3,4.53-3.49,6.94l-.39.79-.48-.74c-.23-.35-.41-.72-.58-1.15-.37-.96-.56-2.17-.56-3.51-.01-1.92.44-4.45,1.21-6.77.32-.99.64-1.79.85-2.28.11-.25.19-.43.27-.61,2.36-4.7.48-10.45-4.2-12.82-1.33-.68-2.83-1.04-4.32-1.04-3.62,0-6.88,2-8.52,5.23l-.19.4c-3.41,7.24-4.18,13.73-4.22,17.91,0,3.66.6,7.12,1.8,10.26,1.9,5.16,5.72,9.71,10.74,12.82l.35.21-.14.38c-1.13,3.1-2.04,5.95-2.77,8.69l36.82,20.67c5.41,3.04,7.94,9.52,6.03,15.42l-15.41,47.59c-1.75,5.41-6.75,9.04-12.43,9.04,0,0,0-.5,0-.5Z"/>
        <path class="cls-2" d="M507.78,313.61c3.41,0,6.57.83,9.12,2.27,7.7,4.34,8.16,16.89,2.73,25.77-1.75,3.5-3.76,7.41-5.82,11.58-.23-.35-.39-.7-.54-1.06-.35-.9-.52-2.04-.52-3.32-.01-1.87.43-4.34,1.19-6.61.32-.97.63-1.75.84-2.24.11-.24.19-.42.27-.59,2.48-4.94.5-10.98-4.43-13.48-1.41-.72-2.98-1.09-4.55-1.09-3.81,0-7.24,2.11-8.97,5.5l-.05.1-.03.06-.12.26c-3.45,7.32-4.22,13.88-4.27,18.11,0,3.73.62,7.25,1.83,10.44,1.94,5.27,5.88,9.93,10.95,13.07-1.1,3.01-2.08,6.06-2.88,9.11l37.16,20.86c5.23,2.93,7.65,9.13,5.8,14.83l-15.41,47.59c-1.72,5.31-6.65,8.7-11.95,8.7h0c-1.28,0-2.59-.2-3.88-.62-6.6-2.14-10.22-9.23-8.08-15.83l12.24-37.79s-32.55-17.72-33.66-18.01c-8.91-2.33-19.17-6.88-17.9-23.32,3.43-22.22,8.35-34.56,20.33-52.3,5.88-8.59,13.73-11.97,20.6-11.97M507.78,312.61c-8.23,0-16.04,4.52-21.43,12.4-12.28,18.18-17.07,30.5-20.49,52.71v.04s0,.04,0,.04c-1.3,16.91,9.26,21.9,18.62,24.36,1.35.53,20.01,10.61,32.74,17.54l-11.99,37.01c-1.12,3.45-.82,7.12.82,10.35,1.65,3.23,4.45,5.62,7.9,6.74,1.36.44,2.77.66,4.19.66,5.9,0,11.08-3.77,12.9-9.39l15.41-47.59c1.98-6.12-.65-12.86-6.26-16.01l-36.48-20.48c.71-2.61,1.58-5.33,2.66-8.28l.28-.77-.69-.43c-4.93-3.05-8.68-7.51-10.54-12.56-1.17-3.1-1.77-6.49-1.77-10.1.04-4.12.8-10.54,4.17-17.69l.12-.26.04-.08.03-.07c1.54-3.03,4.63-4.93,8.06-4.93,1.41,0,2.83.34,4.09.98,4.44,2.25,6.22,7.69,3.99,12.14-.1.2-.18.39-.29.65-.22.51-.55,1.32-.87,2.33-.78,2.36-1.25,4.95-1.24,6.93,0,1.39.2,2.66.59,3.68.18.47.38.86.63,1.25l.96,1.48.78-1.58c1.19-2.4,2.35-4.7,3.47-6.92.81-1.6,1.59-3.14,2.33-4.62,3.43-5.63,4.63-12.71,3.13-18.5-1.02-3.92-3.17-6.9-6.24-8.63-2.79-1.57-6.11-2.4-9.62-2.4h0Z"/>
      </g>
      <g>
        <path class="cls-2" d="M531.34,376.81c-9.65-.01-17.28-1.55-23.33-4.71-5.65-2.91-10.07-7.77-12.12-13.32-1.15-3.04-1.74-6.38-1.74-9.92.04-4.07.79-10.39,4.12-17.47.08-.17.13-.28.15-.33,1.49-2.93,4.41-4.72,7.64-4.72,1.35,0,2.65.31,3.86.93,4.18,2.12,5.87,7.26,3.76,11.46l-.5-.12.45.21c-.05.12-.14.31-.26.58-.22.51-.55,1.34-.89,2.37-.38,1.16-1.28,4.17-1.26,7.09,0,1.45.21,2.79.62,3.86.46,1.18,1.04,2,2,2.86,1.73,1.55,6.29,4.16,17.44,4.16,4.26,0,9.11-.38,14.45-1.14.4-.06.8-.08,1.2-.08,4.23,0,7.86,3.16,8.45,7.35.32,2.26-.26,4.51-1.64,6.33-1.37,1.82-3.37,3-5.63,3.32-6.12.86-11.77,1.3-16.81,1.3h0Z"/>
        <path class="cls-2" d="M506.07,326.83c1.23,0,2.47.28,3.64.87,3.95,2.01,5.53,6.83,3.54,10.79,0,.01-.02.05-.05.11-.06.12-.15.32-.27.6-.23.55-.57,1.39-.9,2.41-.68,2.03-1.3,4.8-1.29,7.25,0,1.53.22,2.9.66,4.03.45,1.14,1.03,2.07,2.14,3.05,2.12,1.91,7.17,4.28,17.77,4.28h.03c4.05,0,8.86-.34,14.49-1.14.38-.05.76-.08,1.13-.08,3.94,0,7.39,2.9,7.96,6.92.62,4.4-2.44,8.47-6.84,9.09-6.25.88-11.78,1.29-16.74,1.3-9.64-.01-17.16-1.55-23.1-4.65-5.94-3.06-10.01-7.99-11.88-13.05-1.28-3.37-1.71-6.71-1.71-9.75.1-9.76,4.02-17.04,4.24-17.62,1.42-2.79,4.24-4.4,7.18-4.4M506.07,325.83c-3.43,0-6.52,1.9-8.07,4.95l-.02.05-.02.05s-.07.15-.14.29c-3.37,7.15-4.13,13.56-4.17,17.67,0,3.62.6,7.01,1.77,10.11,2.08,5.66,6.59,10.62,12.35,13.59,6.11,3.2,13.82,4.76,23.56,4.77,5.06,0,10.74-.44,16.88-1.31,4.94-.7,8.39-5.28,7.69-10.21-.62-4.44-4.47-7.78-8.95-7.78-.42,0-.85.03-1.27.09-5.31.75-10.14,1.13-14.35,1.13-11.43,0-15.79-2.82-17.13-4.03-.9-.8-1.45-1.58-1.88-2.67-.39-1.01-.59-2.28-.59-3.67,0-1.98.45-4.57,1.24-6.93.33-1,.65-1.82.87-2.33.11-.26.2-.45.25-.56l.03-.07v-.02s.01,0,.01,0c2.22-4.43.43-9.86-3.99-12.11-1.27-.64-2.68-.98-4.09-.98h0Z"/>
      </g>
      <g>
        <path class="cls-2" d="M450.85,316.9c-1.33,0-2.68-.12-4.01-.35-12.56-2.19-20.99-14.2-18.8-26.75,1.94-11.09,11.51-19.15,22.75-19.15,1.33,0,2.68.12,4.01.35,6.08,1.06,11.39,4.43,14.94,9.48,3.55,5.05,4.92,11.19,3.86,17.27-1.94,11.09-11.51,19.15-22.75,19.15Z"/>
        <path class="cls-2" d="M450.8,271.15c1.29,0,2.6.11,3.92.34,12.31,2.15,20.54,13.87,18.39,26.18-1.92,10.99-11.47,18.73-22.26,18.73-1.29,0-2.6-.11-3.92-.34-12.31-2.15-20.54-13.87-18.39-26.18,1.92-10.99,11.47-18.73,22.26-18.73M450.8,270.15h0c-11.49,0-21.26,8.23-23.24,19.56-2.24,12.83,6.37,25.09,19.2,27.33,1.35.24,2.73.36,4.09.36,11.49,0,21.26-8.23,23.24-19.56,2.24-12.83-6.37-25.09-19.2-27.33-1.35-.24-2.73-.36-4.09-.36h0Z"/>
      </g>
      <g>
        <path class="cls-2" d="M456.97,479.31c-1.83,0-3.61-.38-5.3-1.13-6.58-2.93-9.56-10.67-6.63-17.25l16.1-36.24-35.53-15.51c-4.01-1.75-5.51-5.53-6.96-9.19-.18-.45-.36-.9-.54-1.34-.09-.22-.18-.44-.27-.65-2.78-6.52-11.6-29.72-9.34-56.74-8.34,3.25-16.56,4.91-24.45,4.93h-.41c-9.13,0-18.13-2.56-26.05-7.41-.42.73-.91,1.4-1.44,1.99l-7.15,7.93c-.11.12-.23.24-.35.36.99,3.49.73,7.13-.74,10.01l-12.54,22.14c-1.5,2.95-4.15,4.72-7.08,4.72h0c-2.02,0-4-.82-5.72-2.36l-31.37-28.27c-2.1-1.9-3.16-4.3-2.96-6.77.2-2.47,1.61-4.67,3.99-6.21l20.68-14.74c2.04-1.32,4.54-2.01,7.25-2.01.89,0,1.78.08,2.65.23.1-.13.21-.26.32-.38l7.15-7.93c2.26-2.5,5.48-3.93,8.85-3.93,2.36,0,4.62.68,6.57,1.97,1.51-1.23,3.41-1.91,5.37-1.91,2.45,0,4.79,1.05,6.41,2.89,7.7,8.59,15.9,12.48,26.57,12.61h.1c9.5,0,18.63-3.75,23.23-5.98,6.59-3.18,10.97-6.52,11.01-6.55,1.51-1.17,3.32-1.79,5.23-1.79.43,0,.87.03,1.3.1.19-.01.37-.02.55-.02.5,0,.96.05,1.36.14l36.99,8.23c.48.11.98.3,1.53.58,2.09.57,5.52,1.62,9.47,3.17,2.6,1.05,4.88,2.06,6.98,3.12l.49.25-.29.47c-3.07,4.93-5.56,9.54-7.62,14.1l-.21.47-.46-.23c-1.79-.89-3.75-1.74-5.85-2.54-8.82,15.01-11.76,26.94-3.62,49.87.23.94.65,2.04,1.04,3.01l.25.63c.31.79.64,1.59.92,2.38l17.23,7.52c3.21,1.4,5.68,3.97,6.95,7.24,1.27,3.27,1.18,6.83-.24,10.04l-21.45,48.26c-2.09,4.72-6.78,7.76-11.95,7.76h0ZM328.68,328.24c.29.21.54.42.77.62l15.43,13.91c.23.21.46.44.7.7l6.08-6.75c.38-.42.69-.89.94-1.41-2.86-2.23-5.52-4.76-7.93-7.53-1.71-1.94-2.44-4.5-2.01-7.06-1.02-.76-2.26-1.17-3.53-1.17-1.66,0-3.25.71-4.37,1.94l-6.08,6.74Z"/>
        <path class="cls-2" d="M339.13,314.03c2.31,0,4.62.7,6.6,2.1,0,0,.01-.01.02-.02,1.53-1.35,3.43-2.01,5.32-2.01,2.23,0,4.44.92,6.03,2.72,8.91,9.94,17.82,12.67,26.94,12.78.04,0,.07,0,.1,0,8.45,0,16.98-2.89,23.45-6.03,6.49-3.13,10.85-6.41,11.1-6.61h0c1.46-1.14,3.2-1.69,4.92-1.69.43,0,.85.03,1.27.1.2-.01.39-.02.57-.02.45,0,.87.04,1.25.13,12.33,2.74,24.66,5.49,36.99,8.23.46.11.94.3,1.42.53,2.09.58,5.52,1.62,9.51,3.19,2.19.88,4.54,1.9,6.94,3.1-3.05,4.89-5.55,9.5-7.65,14.16-2.13-1.05-4.29-1.96-6.29-2.71-8.59,14.52-12.38,26.7-3.88,50.65.21.88.61,1.93,1.04,3.03.41,1.05.87,2.14,1.23,3.2l17.42,7.61c3.08,1.34,5.47,3.84,6.69,6.97,1.21,3.13,1.13,6.59-.23,9.65l-21.45,48.26c-2.08,4.68-6.67,7.47-11.49,7.47h0c-1.7,0-3.44-.35-5.1-1.09-6.34-2.82-9.2-10.25-6.38-16.59l16.31-36.7-35.99-15.71c-4.3-1.88-5.57-6.18-7.24-10.26-.09-.22-.18-.44-.27-.66-1.54-3.6-11.9-28.17-9.23-57.31-7.05,2.83-15.61,5.17-25.02,5.19-.14,0-.27,0-.41,0-8.47,0-17.64-2.23-26.24-7.61-.44.83-.97,1.63-1.63,2.36l-7.15,7.93c-.17.19-.36.37-.54.54,1.01,3.29.88,6.99-.62,9.93l-12.53,22.12c-1.49,2.92-3.99,4.46-6.65,4.46-1.82,0-3.71-.73-5.38-2.23l-31.37-28.27c-4.11-3.7-3.67-9.19.97-12.19l20.7-14.75c2-1.3,4.47-1.92,6.96-1.92.96,0,1.92.09,2.86.28.16-.2.31-.4.48-.6l7.15-7.93c2.25-2.5,5.36-3.77,8.48-3.77M345.58,344.23l6.46-7.16c.52-.58.91-1.23,1.18-1.91-2.83-2.18-5.57-4.72-8.17-7.7-1.74-1.97-2.33-4.55-1.84-6.94-1.19-.98-2.64-1.47-4.08-1.47-1.74,0-3.48.71-4.74,2.1l-6.46,7.16c.41.28.81.58,1.18.91l15.43,13.91c.37.33.71.7,1.03,1.08M339.13,313.03v1-1c-3.51,0-6.87,1.49-9.22,4.1l-7.15,7.93c-.05.06-.1.12-.15.18-.81-.13-1.63-.19-2.44-.19-2.8,0-5.4.72-7.5,2.08l-20.74,14.78c-2.47,1.6-3.97,3.94-4.18,6.57-.21,2.63.9,5.18,3.12,7.18l31.37,28.27c1.81,1.63,3.9,2.49,6.05,2.49,3.12,0,5.94-1.87,7.54-5.01l12.51-22.08c1.5-2.95,1.81-6.6.87-10.13.05-.06.11-.11.16-.17l7.15-7.94c.45-.5.86-1.05,1.24-1.64,7.9,4.73,16.83,7.22,25.89,7.22.14,0,.28,0,.42,0,7.7-.02,15.73-1.59,23.88-4.68-2.04,26.8,6.67,49.71,9.44,56.19.09.21.18.43.27.64.18.45.36.89.54,1.34,1.49,3.75,3.03,7.63,7.23,9.46l35.07,15.31-15.9,35.78c-1.47,3.31-1.57,7-.27,10.38,1.3,3.38,3.84,6.06,7.15,7.53,1.75.78,3.6,1.17,5.5,1.17,5.36,0,10.23-3.16,12.41-8.06l21.45-48.26c1.48-3.33,1.57-7.03.25-10.42-1.32-3.4-3.88-6.07-7.22-7.52l-17.03-7.43c-.26-.73-.56-1.46-.84-2.18l-.26-.64c-.38-.95-.8-2.04-1-2.89v-.05s-.03-.05-.03-.05c-8.01-22.55-5.2-34.37,3.37-49.08,1.93.75,3.75,1.55,5.41,2.37l.93.46.43-.94c2.05-4.54,4.53-9.13,7.59-14.04l.58-.93-.98-.49c-2.11-1.06-4.4-2.08-7.02-3.13-3.92-1.54-7.33-2.59-9.52-3.2-.55-.27-1.06-.46-1.55-.57l-20.29-4.51-16.71-3.72c-.43-.1-.93-.15-1.47-.15-.17,0-.35,0-.53.02-.44-.06-.88-.1-1.32-.1-2.02,0-3.94.66-5.53,1.9-.04.03-4.41,3.36-10.92,6.49-4.56,2.22-13.62,5.93-23.01,5.93h-.1c-10.51-.13-18.6-3.97-26.2-12.45-1.71-1.94-4.18-3.05-6.78-3.05-1.95,0-3.84.63-5.4,1.79-1.96-1.22-4.21-1.86-6.54-1.86h0ZM329.41,328.18l5.72-6.34c1.02-1.13,2.48-1.77,4-1.77,1.06,0,2.11.32,2.99.9-.35,2.6.43,5.18,2.18,7.16,2.34,2.68,4.92,5.14,7.67,7.33-.19.34-.42.66-.68.94l-5.72,6.34c-.12-.12-.24-.23-.36-.34l-15.43-13.91c-.12-.11-.24-.21-.37-.32h0Z"/>
      </g>
    </g>
  </g>
</svg>