<?xml version="1.0" encoding="UTF-8"?>
<svg id="Layer_2" xmlns="http://www.w3.org/2000/svg" viewBox="0 0 678 678">
  <defs>
    <style>
      .cls-1 {
        fill: #231f20;
      }

      .cls-2 {
        fill: #fff;
      }

      .cls-3 {
        fill: #fed600;
      }
    </style>
  </defs>
  <g id="Layer_1-2" data-name="Layer_1">
    <g>
      <path class="cls-3" d="M339,663c-86.54,0-167.91-33.7-229.1-94.9C48.7,506.91,15,425.54,15,339S48.7,171.09,109.9,109.9C171.09,48.7,252.46,15,339,15s167.91,33.7,229.1,94.9,94.9,142.56,94.9,229.1-33.7,167.91-94.9,229.1-142.56,94.9-229.1,94.9Z"/>
      <path class="cls-1" d="M339,30c170.66,0,309,138.34,309,309s-138.34,309-309,309S30,509.66,30,339,168.34,30,339,30M339,0c-45.75,0-90.15,8.97-131.96,26.65-40.37,17.08-76.62,41.51-107.75,72.64-31.12,31.12-55.56,67.37-72.64,107.75C8.97,248.85,0,293.25,0,339s8.97,90.15,26.65,131.96c17.08,40.37,41.51,76.62,72.64,107.75,31.12,31.12,67.37,55.56,107.75,72.64,41.81,17.69,86.21,26.65,131.96,26.65s90.15-8.97,131.96-26.65c40.37-17.08,76.62-41.51,107.75-72.64,31.12-31.12,55.56-67.37,72.64-107.75,17.69-41.81,26.65-86.21,26.65-131.96s-8.97-90.15-26.65-131.96c-17.08-40.37-41.51-76.62-72.64-107.75-31.12-31.12-67.37-55.56-107.75-72.64C429.15,8.97,384.75,0,339,0h0Z"/>
    </g>
    <g>
      <g>
        <path class="cls-2" d="M192.58,273.35c-15.09,0-28.44-9.63-33.21-23.96-6.1-18.31,3.84-38.17,22.16-44.27,3.59-1.2,7.31-1.8,11.06-1.8,15.09,0,28.44,9.63,33.21,23.96,2.95,8.87,2.28,18.36-1.91,26.72-4.18,8.36-11.38,14.59-20.25,17.55-3.59,1.2-7.31,1.8-11.06,1.8Z"/>
        <path class="cls-2" d="M192.59,204.83c14.03,0,27.11,8.88,31.79,22.93,5.85,17.56-3.65,36.53-21.21,42.37-3.51,1.17-7.08,1.72-10.59,1.72-14.03,0-27.11-8.88-31.79-22.93-5.85-17.56,3.65-36.53,21.21-42.37,3.51-1.17,7.08-1.72,10.59-1.72M192.6,201.83h0c-3.91,0-7.79.63-11.54,1.88-9.25,3.08-16.75,9.58-21.11,18.3-4.36,8.72-5.07,18.62-1.99,27.87,4.98,14.94,18.89,24.98,34.63,24.98,3.91,0,7.79-.63,11.54-1.88,19.1-6.36,29.46-27.07,23.11-46.17-4.98-14.94-18.89-24.98-34.63-24.98h0Z"/>
      </g>
      <g>
        <path class="cls-2" d="M206.45,524.86c-7.1,0-13.54-3.62-17.22-9.69-12.81-21.09-19.31-41.47-19.3-60.56-.05-19.54,6.92-34.43,12.77-43.48,6.56-10.18,15.15-19.03,26.26-27.04,2.58-1.84,5.27-3.62,8.02-5.3-.11-10.05-1.72-21.44-4.91-34.78l-.24-1,.84-.58c11.89-8.23,18.51-19.11,21.97-26.79,3.87-8.6,5.07-15.52,5.41-18.1.1-.83.12-1.71.05-2.59-.47-6.36-5.42-11.53-11.75-12.29-.54-.07-1.09-.1-1.62-.1-5.64,0-10.7,3.61-12.6,8.97-.33.94-.56,1.89-.68,2.81,0,.05-1.47,9.28-7.25,17.33-.12.17-.26.35-.39.53l-1.96,2.6-.85-2.85c-.31-1.04-.62-2.08-.92-3.08-3.55-9.1-3.45-19.75.24-27.81,2.51-5.46,6.43-9.25,11.35-10.97,2.83-.99,5.9-1.49,9.13-1.49h.4c1.96-.13,4-.2,6.06-.2,11.82.03,22.81,2.05,32.66,6.01,14.89,5.93,26.92,16.99,33.86,31.15,5.57,11.25,8.39,24.83,8.38,40.35,0,1.81-.05,3.78-.16,6.11,9.4,3.23,16.51,7.89,21.11,11.55l.27-.25c1.31-1.24,3.06-1.92,4.92-1.92,2.24,0,4.45.98,6.06,2.68l19.24,20.37c1.47,1.55,2.3,3.53,2.34,5.58.05,2.11-.74,4.03-2.21,5.42l-32.49,30.68c-1.31,1.24-3.06,1.92-4.92,1.92-2.24,0-4.45-.98-6.06-2.68l-19.24-20.37c-3.06-3.24-3.13-8.18-.14-11l1.27-1.2c-3.62-3.06-8.24-6.19-13.78-9.34-2.83-1.64-5.71-3.19-8.32-4.57-.21,1.21-.46,2.38-.75,3.5.15,1.26.19,2.5.12,3.71h.1l-.29,1.75-.04.27c-.04.33-.11.92-.18,1.73-.13,1.56-.29,4.09-.29,7.32-.02,8.3,1.08,24.66,8.67,41.08,8.83,18.89,22.52,32.34,43.05,42.29l.14.07c10,4.79,14.25,16.83,9.46,26.83-3.33,6.95-10.46,11.44-18.16,11.44h0c-3.02,0-5.93-.66-8.67-1.98-36.13-17.15-53.87-43.1-62.39-61.85-5.42-11.84-9.1-24.58-10.96-37.91-5,3.67-11.13,9.04-15.34,15.7-4.39,6.92-6.36,13.63-6.4,21.75,0,11.58,4.54,24.94,13.47,39.69,5.75,9.48,2.71,21.88-6.77,27.64-3.15,1.91-6.75,2.92-10.41,2.92h0ZM272.65,370.79c2.04,1.07,4.15,2.18,6.29,3.33,6.81,3.75,14.52,8.17,20.7,13.52l19.98-18.87c-1.39-1.07-2.83-2.08-4.29-3.02-3.76-2.41-7.79-4.44-12.01-6.02-1.45,5.93-6.74,10.21-13.01,10.21-.36,0-.73-.01-1.1-.04-7.3-.59-12.78-6.96-12.3-14.25-1.48.06-2.98.17-4.5.33.22,4.61.3,9.49.24,14.83ZM261.36,304.66c6.1,15.61,9.24,28.72,10.56,43.85,1.8-.18,3.6-.3,5.38-.36.02-.76.03-1.51.03-2.23,0-11.38-1.89-20.95-5.6-28.46-2.63-5.28-5.96-9.39-10.37-12.79Z"/>
        <path class="cls-2" d="M229.28,269.9c7.97.02,19.77.94,32.09,5.9,12.27,4.89,25.22,14.4,33.07,30.42,5.26,10.62,8.23,23.78,8.22,39.69,0,2.32-.09,4.73-.21,7.18,10.25,3.34,17.85,8.42,22.74,12.49l1.22-1.15c1.07-1.01,2.46-1.51,3.89-1.51,1.76,0,3.59.75,4.97,2.21l19.24,20.37c2.5,2.65,2.59,6.62.2,8.89l-32.49,30.68c-1.07,1.01-2.46,1.51-3.89,1.51-1.76,0-3.59-.75-4.97-2.21l-19.24-20.37c-2.5-2.65-2.59-6.62-.2-8.89l2.47-2.33c-4.23-3.8-9.6-7.38-15.27-10.6-3.42-1.98-6.88-3.82-10.23-5.57-.27,2.05-.64,3.95-1.11,5.71.24,1.74.25,3.52-.02,5.31h0s-.02.15-.04.33c-.04.35-.11.96-.18,1.78-.14,1.66-.3,4.23-.3,7.45-.02,9.94,1.55,26,8.8,41.71,7.36,15.74,19.68,31.38,43.91,43.08h0c9.27,4.44,13.2,15.56,8.76,24.83-3.2,6.68-9.86,10.59-16.81,10.59-2.69,0-5.43-.59-8.02-1.83-32.15-15.26-51.47-38.68-61.67-61.11-6.59-14.39-9.74-28.28-11.16-39.96-6.78,4.68-13.4,10.67-17.77,17.57-4.08,6.45-6.59,13.42-6.63,22.54,0,9.98,3.22,23.19,13.69,40.47,5.33,8.79,2.52,20.24-6.27,25.58-3.02,1.83-6.35,2.7-9.64,2.7-6.29,0-12.44-3.19-15.94-8.97-13.08-21.53-19.09-41.54-19.09-59.78-.04-16.6,5.12-31.21,12.53-42.67,7.42-11.52,16.85-20.13,25.88-26.64,2.93-2.1,5.83-3.98,8.64-5.67-.03-11.82-2.13-24.18-4.96-35.97,12.01-8.31,18.81-19.25,22.49-27.41,3.95-8.78,5.18-15.82,5.53-18.53.12-.98.13-1.95.06-2.9-.52-6.95-5.89-12.8-13.06-13.67-.6-.07-1.2-.11-1.8-.11-6.39,0-11.94,4.1-14.01,9.98-.35.99-.62,2.03-.75,3.12,0,.08-1.42,8.9-6.98,16.65-.18.25-.36.49-.55.73-.32-1.06-.63-2.11-.93-3.13-5.63-14.36-1.7-32.55,10.67-36.88,2.63-.92,5.56-1.41,8.64-1.41.15,0,.3,0,.44,0,1.62-.11,3.64-.2,6.02-.2M270.55,350.16c2.83-.33,5.56-.51,8.2-.55.04-1.26.08-2.51.08-3.7,0-13-2.39-22.32-5.75-29.13-3.39-6.81-7.76-11.33-12.75-14.73-.71-.49-1.44-.94-2.18-1.37,7.25,17.54,11.03,32,12.41,49.48M278.52,354.09c-2.47.05-5.02.22-7.67.54.29,5.32.38,10.97.29,17.07,2.29,1.19,4.67,2.44,7.08,3.75,7.54,4.15,15.43,8.76,21.45,14.23l22.24-21.01c-1.62-1.32-3.54-2.75-5.77-4.18-3.8-2.44-8.47-4.87-13.99-6.78-.62,6.11-5.77,10.72-11.84,10.72h0c-.32,0-.64-.01-.97-.04-6.56-.53-11.45-6.28-10.92-12.84.04-.51.06-.98.09-1.47M229.28,266.9h0c-2.08,0-4.13.07-6.1.2-.12,0-.24,0-.36,0-3.4,0-6.64.53-9.63,1.58-5.31,1.86-9.54,5.93-12.22,11.77-3.85,8.39-3.96,19.46-.3,28.92.29.99.59,2,.9,3.02l1.71,5.7,3.57-4.77.17-.23c.14-.19.28-.37.42-.56,5.83-8.12,7.37-17.11,7.51-18h0c.1-.82.31-1.66.6-2.5,1.69-4.77,6.18-7.98,11.19-7.98.48,0,.96.03,1.44.09,5.63.68,10.01,5.27,10.44,10.92.06.78.04,1.56-.05,2.31-.33,2.49-1.5,9.24-5.29,17.66-3.38,7.51-9.85,18.14-21.46,26.17l-1.69,1.17.48,2c3.08,12.86,4.68,23.87,4.86,33.6-2.53,1.57-5,3.21-7.37,4.9-11.28,8.13-20,17.11-26.66,27.45-5.96,9.21-13.06,24.38-13.01,44.3,0,19.36,6.56,40,19.52,61.33,3.95,6.52,10.87,10.41,18.5,10.41,3.94,0,7.81-1.08,11.19-3.13,10.19-6.18,13.46-19.51,7.28-29.7-8.79-14.52-13.25-27.61-13.25-38.92.04-7.8,1.94-14.26,6.16-20.94,3.54-5.61,8.51-10.29,12.96-13.78,1.97,12.56,5.56,24.59,10.71,35.81,8.62,18.97,26.57,45.23,63.11,62.57,2.93,1.4,6.07,2.12,9.31,2.12,8.28,0,15.94-4.82,19.52-12.29,5.14-10.75.58-23.69-10.17-28.83l-.24-.11c-20.15-9.79-33.58-22.99-42.25-41.53-7.46-16.15-8.54-32.26-8.52-40.43,0-3.18.16-5.67.29-7.2.07-.78.13-1.35.17-1.68.01-.11.02-.18.03-.22l.52-3.45h-.29c-.01-.71-.05-1.42-.13-2.13.11-.44.21-.88.31-1.33,2.09,1.12,4.3,2.33,6.48,3.59,4.83,2.75,8.94,5.47,12.27,8.13l-.03.02c-3.59,3.4-3.56,9.28.08,13.13l19.24,20.37c1.89,2,4.5,3.15,7.15,3.15,2.25,0,4.36-.83,5.95-2.33l32.49-30.68c1.78-1.68,2.73-4.01,2.68-6.54-.05-2.42-1.03-4.76-2.75-6.58l-19.24-20.37c-1.89-2-4.5-3.15-7.15-3.15-1.93,0-3.75.61-5.24,1.72-4.52-3.46-11.07-7.61-19.51-10.66.08-1.88.11-3.53.11-5.07.01-15.76-2.86-29.56-8.54-41.02-7.1-14.48-19.41-25.81-34.65-31.88-10.01-4.03-21.19-6.09-33.2-6.12h0ZM273.28,346.88c-1.22-12.72-3.77-24.1-8.31-36.85,2.11,2.35,3.89,5.02,5.43,8.1,3.6,7.3,5.43,16.65,5.44,27.79,0,.26,0,.53,0,.79-.85.04-1.7.1-2.55.17h0ZM273.98,357.32c.48-.04.95-.07,1.43-.1.35,7.39,6.15,13.56,13.7,14.17.39.03.8.05,1.21.05,6.38,0,11.86-3.98,13.97-9.72,3.58,1.45,7.01,3.23,10.24,5.3.94.6,1.87,1.24,2.77,1.89l-17.71,16.73c-6.1-5.05-13.42-9.24-19.92-12.82-1.89-1.02-3.74-2-5.51-2.93.04-4.47-.02-8.62-.18-12.56h0Z"/>
      </g>
      <g>
        <path class="cls-2" d="M171.85,354.18c-7.83,0-16.29-.98-25.15-2.92-3.5-.77-6.49-2.85-8.42-5.87-1.93-3.02-2.58-6.61-1.81-10.11,1.34-6.11,6.84-10.55,13.09-10.55.96,0,1.93.11,2.88.31,6.97,1.53,13.5,2.3,19.4,2.3,8.82-.02,16.14-1.65,22.37-5,3.9-2.12,7.21-4.84,10.11-8.31.71-.85,1.32-1.63,1.86-2.39,5.55-7.74,7.11-16.46,7.24-17.26v-.13s.02-.04.02-.04c.07-.56.19-1.13.37-1.79,1.58-5.83,6.89-9.9,12.92-9.9.54,0,1.08.03,1.62.1,6.05.73,10.85,5.47,11.67,11.52.16,1.17.17,2.31.04,3.41-.35,2.65-1.56,9.55-5.42,18.1-3.34,7.41-9.7,17.96-21.03,26.12-1.93,1.39-3.8,2.59-5.74,3.68-10.25,5.79-22.33,8.73-35.91,8.73h-.12Z"/>
        <path class="cls-2" d="M226.74,284.03c.48,0,.96.03,1.44.09,5.5.66,9.66,4.98,10.37,10.23.13.98.16,1.99.03,3.03-.11.8-1.03,8.19-5.29,17.66-3.64,8.08-9.95,17.9-20.54,25.52-1.75,1.26-3.61,2.47-5.6,3.59-9.28,5.25-21.07,8.54-35.18,8.54h-.12c-7.57,0-15.82-.92-24.82-2.89-6.43-1.41-10.5-7.76-9.09-14.19,1.22-5.57,6.15-9.37,11.63-9.37.84,0,1.7.09,2.56.28,7.53,1.65,14.07,2.34,19.72,2.34,10.25-.02,17.52-2.19,23.08-5.18,4.43-2.4,7.84-5.42,10.55-8.67.68-.81,1.33-1.64,1.93-2.48,5.73-7.98,7.4-17.05,7.52-18h0c0-.07,0-.08,0-.08h0c.07-.55.19-1.09.33-1.61,1.4-5.16,6.1-8.8,11.47-8.8M226.74,281.03h0c-6.71,0-12.62,4.53-14.37,11.01-.19.7-.32,1.31-.4,1.91-.02.1-.03.18-.03.26-.15.86-1.68,9.2-6.96,16.55-.52.74-1.11,1.49-1.79,2.31-2.78,3.33-5.94,5.93-9.68,7.96-5.99,3.22-13.08,4.8-21.65,4.81-5.79,0-12.21-.76-19.08-2.27-1.05-.23-2.13-.35-3.2-.35-6.95,0-13.07,4.93-14.56,11.73-.85,3.89-.14,7.88,2.01,11.23,2.15,3.35,5.48,5.67,9.37,6.52,8.96,1.96,17.53,2.96,25.47,2.96h.12c13.85,0,26.18-3,36.65-8.93,1.98-1.11,3.9-2.35,5.88-3.77,11.6-8.35,18.1-19.14,21.52-26.73,3.93-8.74,5.17-15.81,5.52-18.44v-.05c.16-1.26.15-2.54-.02-3.82-.91-6.73-6.25-12-12.98-12.81-.6-.07-1.2-.11-1.8-.11h0Z"/>
      </g>
      <g>
        <path class="cls-2" d="M470.95,283.28c-7.23-.09-14.86-.71-22.66-1.85l-1.57-.23.32-1.56c.97-4.73,2.27-9.73,3.99-15.27,1.66-5.32,6.52-8.9,12.09-8.9,1.28,0,2.55.19,3.78.58,6.67,2.08,10.4,9.2,8.32,15.87-1.1,3.51-2.04,6.94-2.79,10.19l-.27,1.18h-1.21Z"/>
        <path class="cls-2" d="M463.13,256.97c1.1,0,2.22.16,3.33.51,5.89,1.84,9.17,8.1,7.34,13.99-1.2,3.81-2.11,7.23-2.82,10.3-7.24-.09-14.74-.71-22.46-1.83.94-4.59,2.23-9.58,3.96-15.13,1.49-4.78,5.9-7.85,10.66-7.85M463.13,253.97c-6.23,0-11.67,4-13.53,9.95-1.74,5.6-3.06,10.64-4.03,15.42l-.63,3.11,3.14.46c7.86,1.14,15.55,1.77,22.86,1.86l2.42.03.54-2.35c.74-3.22,1.67-6.61,2.76-10.08,2.33-7.47-1.85-15.43-9.31-17.75-1.37-.43-2.79-.65-4.22-.65h0Z"/>
      </g>
      <g>
        <path class="cls-2" d="M504.64,262.38c-18.68,0-34.03-14.63-34.94-33.31-.45-9.34,2.76-18.3,9.04-25.22s14.89-10.99,24.23-11.44c.58-.03,1.15-.04,1.72-.04,18.68,0,34.03,14.63,34.94,33.31.94,19.28-13.99,35.73-33.27,36.66-.58.03-1.15.04-1.72.04h0Z"/>
        <path class="cls-2" d="M504.69,193.86c17.76,0,32.57,13.95,33.44,31.88.9,18.48-13.36,34.19-31.84,35.09-.55.03-1.1.04-1.65.04-17.76,0-32.57-13.95-33.44-31.88-.9-18.48,13.36-34.19,31.84-35.09.55-.03,1.1-.04,1.65-.04M504.69,190.86c-.6,0-1.2.01-1.8.04-20.11.98-35.67,18.13-34.69,38.23.95,19.48,16.95,34.74,36.44,34.74.6,0,1.2-.01,1.8-.04,20.11-.98,35.67-18.13,34.69-38.23-.95-19.48-16.95-34.74-36.44-34.74h0Z"/>
      </g>
      <g>
        <path class="cls-2" d="M507.82,524.86c-6.89,0-13.09-4.36-15.43-10.84-10.47-29.02-15.77-56.39-15.77-81.36,0-4.43.17-8.85.52-13.17l-17.74,1.22.26-1.83c.07-.51,7.15-51.01,13.33-93.78-.49.02-.97.04-1.43.04-3.53,0-6.69-.53-9.68-1.61-3.52-1.25-6.84-3.44-9.34-6.17-2.11-2.3-3.79-5.07-5-8.23l-.9-2.33,2.48.31c8.08,1,16.04,1.51,23.65,1.51,1.42,0,2.74-.01,4.02-.05,19.07-.45,29.6-3.99,30.74-4.39,3.11-1.09,5.64-3.32,7.12-6.29,1.55-3.09,1.78-6.59.64-9.83-1.77-5.07-6.57-8.47-11.93-8.47-1.39,0-2.77.23-4.11.69-.81.26-5.11,1.53-12.82,2.36l-2.9.31,1.44-2.54c.72-1.27,1.36-2.3,1.93-3.21l.42-.68c3.87-6.3,10.05-9.77,17.4-9.77,6.41,0,12.89,2.73,17.34,7.31,5.33,5.49,12.17,21.41-1.88,66.29-8.68,27.73,21.11,72,21.41,72.44l1.47,2.16-32.72,2.26c-.6,4.92-.91,10.11-.91,15.46,0,21.16,4.65,44.8,13.82,70.24,3.07,8.5-1.36,17.92-9.87,20.99-1.8.65-3.67.97-5.56.97Z"/>
        <path class="cls-2" d="M504.72,268.24c6.04,0,12.14,2.61,16.26,6.86,4.99,5.14,11.59,20.63-2.23,64.79-9,28.74,21.6,73.73,21.6,73.73l-31.34,2.16c-.65,4.89-1.08,10.5-1.08,16.87,0,17.62,3.21,41.06,13.91,70.75,2.79,7.74-1.22,16.27-8.96,19.07-1.67.6-3.37.88-5.05.88-6.1,0-11.83-3.78-14.02-9.85-11.76-32.61-15.68-59.57-15.68-80.85,0-5.29.24-10.21.66-14.79l-17.64,1.22s7.28-51.97,13.6-95.61c-1.04.09-2.1.16-3.19.16-2.92,0-6.02-.38-9.17-1.52-3.13-1.11-6.26-3.07-8.75-5.77-2.1-2.29-3.61-4.91-4.71-7.75,8.15,1.01,16.11,1.53,23.84,1.53h.06c1.37,0,2.7-.01,3.99-.05,19.24-.45,29.98-4.05,31.2-4.48,3.61-1.26,6.38-3.85,7.96-7.03,1.65-3.31,2.03-7.24.71-11-1.98-5.67-7.35-9.48-13.35-9.48-1.56,0-3.11.26-4.6.77-.65.2-4.9,1.47-12.49,2.28.89-1.58,1.69-2.82,2.32-3.84,3.92-6.37,10-9.06,16.12-9.06M504.72,265.24c-7.89,0-14.52,3.72-18.68,10.49l-.42.67c-.54.88-1.22,1.97-1.96,3.27l-2.88,5.08,5.81-.62c7.84-.84,12.27-2.15,13.08-2.41h.03s.03-.02.03-.02c1.18-.4,2.4-.61,3.63-.61,4.73,0,8.96,3,10.52,7.47,1,2.86.8,5.94-.56,8.67-1.31,2.62-3.53,4.58-6.27,5.54-1.13.4-11.44,3.87-30.28,4.31-1.24.03-2.56.05-3.92.05h-.06c-7.55,0-15.45-.51-23.47-1.5l-4.96-.62,1.79,4.67c1.28,3.33,3.06,6.26,5.29,8.7,2.67,2.9,6.2,5.24,9.96,6.57,3.06,1.1,6.29,1.66,9.87,1.69-6.12,42.38-13.01,91.53-13.08,92.03l-.51,3.66,3.69-.25,14.17-.98c-.26,3.81-.4,7.68-.39,11.56,0,25.14,5.33,52.68,15.85,81.87,2.55,7.08,9.32,11.83,16.84,11.83,2.07,0,4.11-.36,6.06-1.06,9.29-3.35,14.12-13.63,10.77-22.91-9.11-25.28-13.73-48.74-13.74-69.73,0-4.84.25-9.56.75-14.05l28.87-1.99,5.21-.36-2.94-4.32c-.3-.44-29.67-44.13-21.22-71.15,6.17-19.72,8.97-35.9,8.31-48.09-.6-11.12-4.02-16.84-6.78-19.69-4.72-4.87-11.6-7.77-18.41-7.77h0Z"/>
      </g>
      <g>
        <path class="cls-2" d="M472.79,308.64c-8.01,0-16.43-.57-25.05-1.7-12.92-1.69-26.36-4.65-39.94-8.8-6.68-2.04-10.46-9.13-8.43-15.82,1.64-5.37,6.51-8.98,12.12-8.98,1.25,0,2.49.19,3.7.55,11.24,3.43,22.33,5.96,32.97,7.52,7.63,1.12,15.1,1.74,22.18,1.86.84.02,1.66.02,2.47.02,4,0,7.93-.17,11.67-.5,9.12-.82,14.18-2.36,14.72-2.53l.13-.04c1.3-.44,2.66-.66,4.02-.66,5.37,0,10.18,3.41,11.95,8.49.6,1.73.82,3.54.65,5.38-.47,4.91-3.77,9.14-8.42,10.77-.44.16-11.06,3.85-30.09,4.38-1.49.04-3.02.07-4.61.07h-.05Z"/>
        <path class="cls-2" d="M411.49,274.84c1.08,0,2.18.16,3.26.49,12.33,3.76,23.41,6.14,33.19,7.57,8.45,1.24,15.92,1.77,22.38,1.88.85.01,1.68.02,2.49.02,4.48,0,8.41-.21,11.8-.51,9.22-.83,14.38-2.38,15.04-2.6.06-.02.07-.02.07-.02h0c1.2-.41,2.42-.61,3.63-.61,4.61,0,8.93,2.88,10.54,7.48.55,1.57.72,3.18.57,4.74-.4,4.21-3.17,8.01-7.42,9.49-.94.33-11.24,3.78-29.63,4.29-1.48.04-2.99.07-4.57.07h-.06c-7.23,0-15.53-.47-24.84-1.69-11.69-1.53-24.97-4.25-39.7-8.75-5.9-1.8-9.23-8.04-7.43-13.94,1.47-4.82,5.9-7.92,10.68-7.92M411.49,271.84h0c-6.28,0-11.72,4.03-13.55,10.04-2.28,7.47,1.95,15.41,9.43,17.69,13.67,4.17,27.19,7.15,40.19,8.85,8.68,1.14,17.16,1.71,25.23,1.71h.06c1.43,0,2.91-.02,4.65-.07,18.91-.53,29.42-4.06,30.55-4.46,5.19-1.82,8.88-6.54,9.41-12.04.2-2.05-.05-4.08-.72-6.01-1.99-5.68-7.36-9.49-13.37-9.49-1.52,0-3.02.24-4.47.73-.07.02-.13.04-.18.06-.72.22-5.63,1.67-14.36,2.45-3.7.33-7.58.5-11.53.5-.79,0-1.61,0-2.44-.02-7.03-.12-14.43-.74-22-1.85-10.57-1.55-21.59-4.06-32.75-7.47-1.35-.41-2.74-.62-4.14-.62h0Z"/>
      </g>
      <g>
        <polygon class="cls-2" points="407.26 156.4 429.56 152.91 435 214.88 421.01 217.06 407.26 156.4"/>
        <path class="cls-2" d="M428.21,154.64l5.17,58.97-11.21,1.75-13.09-57.73,19.13-2.99M430.92,151.18l-3.17.5-19.13,2.99-3.17.5.71,3.13,13.09,57.73.62,2.73,2.77-.43,11.21-1.75,2.77-.43-.24-2.79-5.17-58.97-.28-3.2h0Z"/>
      </g>
      <g>
        <path class="cls-2" d="M430.36,241.28c-5.06,0-9.3-3.63-10.08-8.64-.87-5.56,2.95-10.8,8.51-11.67.53-.08,1.06-.12,1.59-.12,5.06,0,9.3,3.63,10.08,8.64.42,2.69-.23,5.39-1.84,7.6-1.61,2.21-3.98,3.65-6.67,4.07-.53.08-1.06.12-1.59.12h0Z"/>
        <path class="cls-2" d="M430.38,222.35c4.22,0,7.93,3.07,8.6,7.37.74,4.75-2.51,9.21-7.26,9.96-.46.07-.91.11-1.36.11-4.22,0-7.93-3.07-8.6-7.37-.74-4.75,2.51-9.21,7.26-9.96.46-.07.91-.11,1.36-.11M430.38,219.35c-.61,0-1.22.05-1.82.14-6.38,1-10.76,7-9.76,13.38.9,5.74,5.76,9.91,11.56,9.91.61,0,1.22-.05,1.82-.14,3.09-.48,5.81-2.14,7.65-4.67,1.84-2.53,2.59-5.62,2.11-8.71-.9-5.74-5.76-9.91-11.56-9.91h0Z"/>
      </g>
    </g>
  </g>
</svg>